<?xml version="1.0"?>
<svg xmlns="http://www.w3.org/2000/svg" viewBox="0 0 512 512" width="512" height="512"><g id="Fill_out_line" data-name="Fill out line"><path d="M448,104a23.99527,23.99527,0,0,0,18.28,23.3,64.019,64.019,0,0,0,18.12988,119.65A286.02218,286.02218,0,0,1,386.71,420.11a40.111,40.111,0,0,0-15.22-15.04A24.00024,24.00024,0,1,0,343.06006,401,40.027,40.027,0,0,0,319.71,416.4,64.02738,64.02738,0,0,0,225.77,486.99q-11.985,1.005-24.23,1.01A177.52875,177.52875,0,0,1,24,310.46a285.64344,285.64344,0,0,1,88.66-207.21,40.00513,40.00513,0,0,0,79.3-5.32,64.0204,64.0204,0,0,0,99.63007-73.32q9.36-.6,18.86987-.61H488V86.12A23.99309,23.99309,0,0,0,448,104Z" style="fill:#7ab355"/><polygon points="24 464 48 488 392 120 24 464" style="fill:#699949"/><path d="M416.124,213.54607a24.001,24.001,0,1,1,26.40188,26.32254Z" style="fill:#68737f"/><path d="M423.99927,279.99914c-11.81572,11.81572-33.69365,25.34976-51.58344,14.89874a32.81827,32.81827,0,0,1-11.31371-11.31371c-10.451-17.88979,3.083-39.76772,14.89874-51.58344S409.69452,206.651,427.58431,217.102A32.81873,32.81873,0,0,1,438.898,228.41569C449.349,246.30548,435.815,268.18337,423.99927,279.99914Z" style="fill:#e04446"/><path d="M133.38192,158.57927a24.001,24.001,0,1,1,37.28179-.05611Z" style="fill:#68737f"/><path d="M185.94,200c0,16.71-5.9,41.75-25.94,47.01a32.81855,32.81855,0,0,1-16,0c-20.04-5.26-25.94-30.3-25.94-47.01s5.9-41.75,25.94-47.01a32.81855,32.81855,0,0,1,16,0C180.04,158.25,185.94,183.29,185.94,200Z" style="fill:#e04446"/><path d="M488,16H310.46c-6.37646,0-12.89746.21045-19.38184.626A7.99986,7.99986,0,0,0,284.146,27.54,56.03734,56.03734,0,0,1,232,104a55.32908,55.32908,0,0,1-35.02783-12.30518,7.99983,7.99983,0,0,0-13.00293,5.8545A31.85417,31.85417,0,0,1,176,117.17657V103.8335H160v8.60485a32.291,32.291,0,0,0-16-.00006V103.8335H128v13.33264a31.85935,31.85935,0,0,1-7.4707-15.35657,7.99994,7.99994,0,0,0-13.39405-4.34521A293.64251,293.64251,0,0,0,16,310.46,185.458,185.458,0,0,0,54.91449,424.15082L18.53711,458.15576a7.99921,7.99921,0,0,0-.19385,11.501l24,24A7.99979,7.99979,0,0,0,48,496c.04492,0,.08984-.00049.13477-.001a8,8,0,0,0,5.70947-2.53613l34.00531-36.37781A185.45562,185.45562,0,0,0,201.54,496c8.30908,0,16.686-.34912,24.89844-1.0376a8,8,0,0,0,7.1084-9.84814A56.0157,56.0157,0,0,1,315.7334,423.3418a8.001,8.001,0,0,0,10.4331-2.21826,32.01135,32.01135,0,0,1,18.67774-12.3252,7.99983,7.99983,0,0,0,3.86621-13.46143,15.99991,15.99991,0,1,1,18.94434,2.71241,7.99989,7.99989,0,0,0-.065,14.00537,32.07738,32.07738,0,0,1,12.18164,12.03711,7.99947,7.99947,0,0,0,12.11231,2.11963A294.27662,294.27662,0,0,0,492.31055,248.20752a8.00007,8.00007,0,0,0-6.46192-9.12695,55.7312,55.7312,0,0,1-18.26367-6.8219,31.88736,31.88736,0,0,0,4.21838-12.74854l13.8534-13.85339-11.31348-11.31348-6.286,6.286a32.2276,32.2276,0,0,0-12.68652-12.68652l6.286-6.286-11.31348-11.31348-10.23388,10.23383A55.90387,55.90387,0,0,1,470.002,134.38135a7.9999,7.9999,0,0,0-1.82519-14.85352,15.9948,15.9948,0,1,1,14.48291-27.45117A8.0001,8.0001,0,0,0,496,86.12012V24A7.99977,7.99977,0,0,0,488,16ZM126.05908,200c0-3.60638.57459-31.88269,17.94092-38.57269v77.14538C126.63367,231.88269,126.05908,203.60638,126.05908,200ZM160,161.42731c17.36633,6.69,17.94092,34.96631,17.94092,38.57269S177.36633,231.88269,160,238.57269Zm3.31348-29.30963a15.95843,15.95843,0,0,1,4.24908,15.06335,39.658,39.658,0,0,0-31.128.0014,16.00816,16.00816,0,0,1,26.879-15.06475ZM47.80615,476.49219,35.50781,464.19385,224.085,287.915Zm402.6482-230.234a31.78556,31.78556,0,0,0,5.45361-2.46143A72.02922,72.02922,0,0,0,463.04712,248H450.24976Q450.37024,247.12457,450.45435,246.25818Zm-2.10144-16.60224a39.66047,39.66047,0,0,0-22.0116-22.00976,16.00732,16.00732,0,1,1,22.0116,22.00976Zm-15.03943,21.116c-2.33545,7.72119-7.93213,16.53272-14.97022,23.57129-7.03857,7.03809-15.8501,12.63477-23.57129,14.97022-6.21655,1.88061-11.64111,1.76123-16.4082-.36371l54.58594-54.58606C435.07446,239.13037,435.19409,244.55463,433.31348,250.772Zm-66.627,10.45606c2.33545-7.72119,7.93213-16.53272,14.97022-23.57129,7.03857-7.03809,15.8501-12.63477,23.57129-14.97022a28.62456,28.62456,0,0,1,8.27783-1.33056,19.72018,19.72018,0,0,1,8.1311,1.6936l-54.58667,54.58673C364.92554,272.86963,364.80591,267.44537,366.68652,261.228ZM480,73.01416a32.01676,32.01676,0,0,0-29.23926,54.94824A71.83121,71.83121,0,0,0,424,184c0,1.39252.051,2.78741.13086,4.17981A31.84894,31.84894,0,0,0,409.7384,205.546q-.8648.08358-1.7384.20435V192H392v18.76764a79.7672,79.7672,0,0,0-15.71838,10.2005l-10.62488-10.62488-11.31348,11.31348,10.62488,10.62488A79.76891,79.76891,0,0,0,354.76758,248H336v16h13.75024a36.03138,36.03138,0,0,0,10.6521,31.59766c7.33789,7.33838,16.16309,11.06543,25.97608,11.06543a41.15579,41.15579,0,0,0,5.62158-.402V320h16V301.23236a79.7672,79.7672,0,0,0,15.71838-10.2005l10.62488,10.62488,11.31348-11.31348-10.62488-10.62488A79.76891,79.76891,0,0,0,445.23242,264H464V248.48541a71.84893,71.84893,0,0,0,11.25342,4.47357,278.25478,278.25478,0,0,1-87.20215,155.34961,48.06226,48.06226,0,0,0-3.59619-3.67187,31.984,31.984,0,1,0-53.729-7.67383,48.0674,48.0674,0,0,0-13.00488,9.44385,72.03171,72.03171,0,0,0-101.32178,73.20361C211.458,479.86914,206.48682,480,201.54,480A169.19547,169.19547,0,0,1,98.84149,445.32629l299.00275-319.8634a7.9999,7.9999,0,0,0-11.30713-11.30713L66.67358,413.15857A169.19305,169.19305,0,0,1,32,310.46a277.56245,277.56245,0,0,1,77.28564-192.54248,47.993,47.993,0,0,0,12.37323,15.25946,31.856,31.856,0,0,0,1.55066,24.2608q-.55242.67055-1.08465,1.37366l-9.723-9.723-11.31348,11.31348,13.27093,13.27093A79.76982,79.76982,0,0,0,110.45758,192H95.43164v16h15.02594a79.76982,79.76982,0,0,0,3.90173,18.32721l-13.27093,13.27093,11.31348,11.31348,9.723-9.723a37.53529,37.53529,0,0,0,59.75024,0l9.723,9.723,11.31348-11.31348-13.27093-13.27093A79.76982,79.76982,0,0,0,193.54242,208h15.02594V192H193.54242a79.76982,79.76982,0,0,0-3.90173-18.32721l13.27093-13.27093-11.31348-11.31348-9.723,9.723q-.53374-.70459-1.08716-1.37665a31.88775,31.88775,0,0,0,1.55286-24.2453,47.792,47.792,0,0,0,15.20459-21.96826A72.047,72.047,0,0,0,302.24609,32.12061C305.002,32.04053,307.74512,32,310.46,32H480Z"/></g></svg>
