<?xml version="1.0" encoding="iso-8859-1"?>
<!-- Generator: Adobe Illustrator 19.0.0, SVG Export Plug-In . SVG Version: 6.00 Build 0)  -->
<svg version="1.1" id="Capa_1" xmlns="http://www.w3.org/2000/svg" xmlns:xlink="http://www.w3.org/1999/xlink" x="0px" y="0px"
	 viewBox="0 0 511.999 511.999" style="enable-background:new 0 0 511.999 511.999;" xml:space="preserve">
<rect x="247.049" y="211.238" style="fill:#E2B27F;" width="151.669" height="240.774"/>
<path style="fill:#F7CB92;" d="M398.721,194.599v124.569l-59.078-2.07l0,0c-7.125,44.689-45.669,77.576-90.923,77.576h-57.862
	c-14.694,0-26.605-11.912-26.605-26.605v-59.476h-46.096V200.396l64.809-112.258l165.042-8.432L398.721,194.599z"/>
<path style="fill:#E2B27F;" d="M248.72,394.673c30.506,0,40.494-90.234,43.084-153.806c0.808-19.844-15.052-36.371-34.914-36.371
	H118.157l-0.958-38.786l86.004-67.454h96.122h65.768l41.243,74.2l-7.615,15.911v37.102v93.7v85.624"/>
<path style="fill:#A35D45;" d="M182.187,178.71h118.105v45.071c0,15.523,12.584,28.107,28.107,28.107l0,0l0,0
	c0-16.144,13.088-29.231,29.231-29.231h41.09V113.601H181.117L182.187,178.71z"/>
<path style="fill:#75706B;" d="M406.335,143.102l-44.612,22.609l-13.301-5.082l-30.795-11.748l-94.912-3.8l-103.435-6.746
	c0,0-5.015-98.342,135.68-109.202l30.356,0.09l23.351,0.078C443.853,41.308,406.335,143.102,406.335,143.102z"/>
<path style="fill:#605B58;" d="M406.335,143.102l-44.612,22.609l-13.301-5.082c-0.337-3.654,0.102-8.23,1.473-13.851
	c15.504-63.871-44.623-105.661-64.58-117.556l23.351,0.078C443.853,41.308,406.335,143.102,406.335,143.102z"/>
<path style="fill:#75706B;" d="M222.717,145.081c0,0-44.972,71.955-198.999,58.463l95.564-65.209L222.717,145.081z"/>
<path style="fill:#605B58;" d="M317.63,148.884c0,0,38.566,61.705,170.653,50.136l-81.952-55.92L317.63,148.884z"/>
<polygon style="fill:#75706B;" points="222.717,145.081 317.63,148.884 307.039,7.615 260.943,7.615 "/>
<path style="fill:#BA7052;" d="M89.412,466.979l-0.911-19.159H39.234l4.58,28.399c2.619,16.233,16.631,28.167,33.074,28.167l0,0
	c16.224,0,30.117-11.625,32.977-27.594l14.058-78.495c1.509-8.425-4.968-16.164-13.526-16.164l0,0c-5.978,0-11.271,3.865-13.09,9.56
	l-17.93,56.128"/>
<polyline style="fill:#605B58;" points="376.744,491.363 166.612,491.363 202.59,419.408 295.796,419.408 "/>
<polyline style="fill:#75706B;" points="261.052,419.408 435.207,419.408 435.207,491.363 225.075,491.363 261.052,419.408 "/>
<path d="M190.858,402.288h57.862c23.697,0,46.675-8.471,64.702-23.851s30.01-36.739,33.74-60.141
	c0.662-4.153-2.168-8.057-6.321-8.719c-4.156-0.662-8.057,2.168-8.719,6.321c-3.161,19.826-13.313,37.921-28.585,50.952
	c-15.272,13.031-34.741,20.207-54.817,20.207h-57.862c-10.471,0-18.99-8.519-18.99-18.99v-9.893c0-4.205-3.409-7.615-7.615-7.615
	c-4.205,0-7.615,3.409-7.615,7.615v9.893C156.639,386.938,171.989,402.288,190.858,402.288z"/>
<path d="M118.159,220.663c-4.205,0-7.615,3.409-7.615,7.615v80.315c0,4.205,3.409,7.615,7.615,7.615h46.095
	c4.205,0,7.615-3.409,7.615-7.615s-3.409-7.615-7.615-7.615h-38.48v-72.7C125.774,224.073,122.364,220.663,118.159,220.663z"/>
<path d="M492.576,192.73l-77.343-52.775c1.871-7.12,4.405-20.098,3.174-35.033c-1.722-20.883-11.293-49.541-47.117-67.469
	c-3.759-1.881-8.336-0.358-10.217,3.401c-1.882,3.761-0.359,8.336,3.402,10.218c47.792,23.918,40.071,69.973,36.127,84.77
	l-75.941,4.953l-7.717-102.941c7.613,0.967,14.79,2.265,21.41,3.889c0.61,0.149,1.219,0.221,1.82,0.221
	c3.426,0,6.537-2.327,7.39-5.803c1.002-4.085-1.498-8.208-5.581-9.21c-8.072-1.98-16.867-3.508-26.199-4.574l-1.149-15.332
	C314.335,3.072,311.024,0,307.038,0h-46.096c-3.42,0-6.42,2.28-7.337,5.575l-4.57,16.433c-30.879,2.938-57.214,10.365-78.332,22.116
	c-18.219,10.137-32.614,23.469-42.787,39.626c-13.427,21.326-15.834,41.774-16.209,50.535l-92.284,62.969
	c-2.658,1.813-3.89,5.103-3.075,8.216c0.814,3.113,3.497,5.379,6.703,5.659c11.332,0.993,23.904,1.662,37.211,1.662
	c39.469,0,85.368-5.891,124.303-26.704c23.919-12.786,36.755-26.716,41.898-33.236l87.202,3.494
	c4.556,5.739,15.673,17.705,36.166,28.66c33.582,17.952,73.124,23.029,107.117,23.029c11.439,0,22.256-0.576,31.997-1.429
	c3.206-0.281,5.889-2.546,6.703-5.659C496.464,197.833,495.234,194.543,492.576,192.73z M140.807,91.863
	c8.794-13.968,21.344-25.553,37.303-34.432c17.957-9.991,40.304-16.581,66.541-19.649l-27.612,99.297l-89.857-5.86
	C127.988,122.832,130.858,107.666,140.807,91.863z M46.325,197.337l75.082-51.232l85.513,5.577
	C188.87,168.971,142.249,200.903,46.325,197.337z M232.63,137.858l34.1-122.628h33.244l9.424,125.703L232.63,137.858z
	 M358.104,172.151c-10.947-5.727-18.882-11.755-24.322-16.69l70.426-4.593l61.3,41.828
	C432.111,193.559,391.688,189.722,358.104,172.151z"/>
<path d="M138.889,347.709c-16.256,0-29.809,11.762-32.617,27.221c-7.546,1.471-13.808,6.899-16.219,14.445l-16.237,50.83H39.234
	c-2.232,0-4.351,0.979-5.797,2.677c-1.447,1.699-2.075,3.947-1.72,6.15l4.58,28.399c3.231,20.031,20.302,34.569,40.592,34.569
	c19.937,0,36.957-14.243,40.472-33.867l14.059-78.495c1.118-6.24-0.576-12.608-4.644-17.471c-1.574-1.88-3.435-3.447-5.489-4.665
	c1.581-8.281,8.867-14.564,17.603-14.564c4.205,0,7.615-3.409,7.615-7.615S143.094,347.709,138.889,347.709z M116.427,396.954
	l-14.059,78.495c-2.213,12.355-12.929,21.323-25.481,21.323c-12.775,0-23.522-9.153-25.556-21.764l-3.157-19.571h31.028
	c0.118,0.002,0.235,0.003,0.351,0h1.685l0.566,11.906c0.2,4.2,3.772,7.445,7.968,7.244c4.201-0.2,7.444-3.767,7.245-7.968
	l-0.911-19.159c-0.173-3.629-2.865-6.565-6.338-7.148l14.79-46.302c0.814-2.549,3.16-4.262,5.836-4.262
	c2.49,0,4.013,1.375,4.698,2.195C115.78,392.761,116.866,394.503,116.427,396.954z"/>
<path d="M406.336,396.92V217.086c0-4.205-3.409-7.615-7.615-7.615s-7.615,3.409-7.615,7.615V396.92c0,4.205,3.409,7.615,7.615,7.615
	S406.336,401.126,406.336,396.92z"/>
<path d="M435.208,411.793H261.052c-2.885,0-5.521,1.63-6.811,4.21l-35.977,71.955c-1.181,2.361-1.055,5.164,0.333,7.409
	c1.388,2.245,3.839,3.612,6.478,3.612h67.179c4.205,0,7.615-3.409,7.615-7.615c0-4.205-3.409-7.615-7.615-7.615h-54.858
	l28.362-56.725h161.833v56.725H317.639c-4.205,0-7.615,3.409-7.615,7.615c0,4.205,3.409,7.615,7.615,7.615h117.568
	c4.205,0,7.615-3.409,7.615-7.615v-71.955C442.823,415.202,439.413,411.793,435.208,411.793z"/>
<path d="M200.376,483.748h-21.442l28.363-56.725h22.014c4.205,0,7.615-3.409,7.615-7.615c0-4.205-3.409-7.615-7.615-7.615h-26.72
	c-2.885,0-5.521,1.63-6.811,4.21l-35.978,71.954c-1.181,2.361-1.055,5.164,0.333,7.409s3.839,3.612,6.478,3.612h33.763
	c4.205,0,7.615-3.409,7.615-7.615S204.581,483.748,200.376,483.748z"/>
<path d="M206.461,224.828c-4.135,4.135-9.634,6.413-15.483,6.413c-5.849,0-11.347-2.277-15.484-6.413
	c-2.974-2.974-7.796-2.973-10.769,0c-2.974,2.974-2.974,7.796,0,10.77c7.012,7.012,16.335,10.874,26.252,10.874
	c9.917,0,19.239-3.861,26.251-10.874c2.974-2.974,2.974-7.796,0-10.77C214.255,221.854,209.433,221.854,206.461,224.828z"/>
<path d="M300.293,171.095h-78.752c-4.205,0-7.615,3.409-7.615,7.615c0,4.205,3.409,7.615,7.615,7.615h71.137v37.456
	c0,19.697,16.025,35.722,35.722,35.722c4.205,0,7.615-3.409,7.615-7.615c0-11.92,9.697-21.616,21.617-21.616h18.603
	c4.205,0,7.615-3.409,7.615-7.615c0-4.205-3.409-7.615-7.615-7.615h-18.603c-17.322,0-31.891,12.014-35.81,28.149
	c-8.082-2.746-13.914-10.41-13.914-19.41V178.71C307.908,174.505,304.498,171.095,300.293,171.095z"/>
<path d="M164.254,322.777c-4.205,0-7.615,3.409-7.615,7.615s3.409,7.615,7.615,7.615h23.723c4.205,0,7.615-3.409,7.615-7.615
	s-3.409-7.615-7.615-7.615H164.254z"/>
<g>
</g>
<g>
</g>
<g>
</g>
<g>
</g>
<g>
</g>
<g>
</g>
<g>
</g>
<g>
</g>
<g>
</g>
<g>
</g>
<g>
</g>
<g>
</g>
<g>
</g>
<g>
</g>
<g>
</g>
</svg>
